<svg xmlns="http://www.w3.org/2000/svg" xmlns:pdf="http://ns.adobe.com/pdf/1.3/" xmlns:x="adobe:ns:meta/" xmlns:xap="http://ns.adobe.com/xap/1.0/" xmlns:xapGImg="http://ns.adobe.com/xap/1.0/g/img/" xmlns:xapMM="http://ns.adobe.com/xap/1.0/mm/" xmlns:xlink="http://www.w3.org/1999/xlink" xmlns:xml="http://www.w3.org/XML/1998/namespace" id="svg548" width="64" height="64" enable-background="new 0 0 256 256" overflow="visible" viewBox="0 0 256 256" xml:space="preserve"><metadata id="metadata549"><xpacket>begin=&apos; &apos; id=&apos;W5M0MpCehiHzreSzNTczkc9d&apos;</xpacket><x:xmpmeta x:xmptk="XMP toolkit 3.0-29, framework 1.6"/><xpacket>end=&apos;w&apos;</xpacket></metadata><g id="Layer_1"><path id="path551" d="M44,15.5c-9.374,0-17,7.626-17,17v200c0,9.374,7.626,17,17,17h176c9.375,0,17-7.626,17-17v-200 c0-9.374-7.625-17-17-17H44z" opacity=".2"/><path id="path552" d="M42,13.5c-9.374,0-17,7.626-17,17v200c0,9.374,7.626,17,17,17h176c9.375,0,17-7.626,17-17v-200 c0-9.374-7.625-17-17-17H42z" opacity=".2"/><path id="path553" d="M40,12.5c-9.374,0-17,7.626-17,17v200c0,9.374,7.626,17,17,17h176c9.375,0,17-7.626,17-17v-200 c0-9.374-7.625-17-17-17H40z" opacity=".2"/><linearGradient id="XMLID_9_" x1="129" x2="129" y1="11" y2="245" gradientUnits="userSpaceOnUse"><stop style="stop-color:#494949" id="stop555" offset="0"/><stop style="stop-color:#000" id="stop556" offset="1"/></linearGradient><path id="path560" fill="url(#XMLID_9_)" d="M41,11c-9.374,0-17,7.626-17,17v200c0,9.374,7.626,17,17,17h176c9.375,0,17-7.626,17-17V28 c0-9.374-7.625-17-17-17H41z"/><path id="path561" fill="#FFF" d="M28,228c0,6.627,5.373,12,12,12h176c6.627,0,12-5.373,12-12V28c0-6.627-5.373-12-12-12H40 c-6.627,0-12,5.373-12,12V228z"/><linearGradient id="XMLID_10_" x1="29.053" x2="226.947" y1="29.053" y2="226.947" gradientUnits="userSpaceOnUse"><stop style="stop-color:#fff" id="stop563" offset="0"/><stop style="stop-color:#dadada" id="stop564" offset="1"/></linearGradient><path id="path568" fill="url(#XMLID_10_)" d="M40,21c-3.86,0-7,3.14-7,7v200c0,3.859,3.14,7,7,7h176c3.859,0,7-3.141,7-7V28 c0-3.86-3.141-7-7-7H40z"/><g id="g569"><path id="path570" fill="none" d="M151.084,56.005c-18.621,11.298,27.717,149.893,50.292,120.646c25.396-32.906-174.091,9.946-136.042,27.712 C109.917,225.173,185.79,34.932,151.084,56.005z"/><path id="path571" fill="none" d="M145.255,51.866c-18.618,11.302,27.722,149.897,50.299,120.646c25.397-32.9-174.097,9.947-136.038,27.71 C104.099,221.034,179.966,30.796,145.255,51.866z"/><path id="path572" d="M145.958,52.801c-13.955,9.449-5.518,36.747-2.447,49.556c5.616,23.422,14.021,48.225,27.931,68.118 c4.088,5.842,9.303,12.212,16.765,13.404c7.247,1.164,14.421-4.048,17.536-10.276c6.521-13.05-16.097-13.611-23.26-13.656 c-21.297-0.135-42.961,4.088-63.641,8.799c-18.844,4.294-38.858,9.282-55.742,19.001c-4.43,2.553-9.753,6.316-10.542,11.756 c-0.765,5.261,6.599,8.243,10.488,9.153c17.333,4.069,33.11-11.491,43.28-23.326c22.536-26.237,38.462-60.078,49.56-92.599 c3.64-10.657,8.138-23.222,7.146-34.688c-0.849-9.945-10.073-9.327-17.069-5.239c-6.79,3.969,0.365,8.07,5.523,5.061 c1.245-0.732-1.068-0.572-0.501-0.004c0.696,0.699,0.963,3.671,0.97,5.307c0.047,7.808-2.32,15.712-4.532,23.109 c-6.877,23.003-17.126,45.324-29.044,66.125c-9.418,16.427-21.929,38.57-39.77,47.217c-4.649,2.256-10.546,2.477-14.427-1.459 c-0.743-0.75-0.482-1.355-0.156-1.839c0.777-1.14,3.117-2.657,5.275-3.895c16.67-9.601,37.565-13.731,56.145-17.697 c19.276-4.123,40.154-8.265,59.963-6.604c3.365,0.278,10.137,1.149,10.266,4.056c0.049,1.109-1.011,3.09-2.096,3.908 c-1.031,0.768,0.973,0.063-0.244-0.13c-1.336-0.21-2.669-1.265-3.703-2.055c-7.561-5.746-12.328-15.381-16.488-23.652 c-5.786-11.526-10.313-23.694-14.191-35.973c-3.703-11.743-6.742-23.799-8.271-36.029c-0.579-4.658-0.855-9.374-0.525-14.06 c0.112-1.525,0.345-3.031,0.773-4.499c0.279-0.941,1.589-2.521,0.558-1.823c6.48-4.385-0.494-8.461-5.523-5.06L145.958,52.801z" opacity=".2"/><path id="path573" d="M144.226,51.069c-13.954,9.449-5.52,36.748-2.444,49.556c5.613,23.422,14.016,48.223,27.926,68.117 c4.088,5.842,9.303,12.21,16.768,13.404c7.246,1.166,14.421-4.048,17.533-10.277c6.522-13.048-16.097-13.61-23.257-13.656 c-21.298-0.135-42.961,4.088-63.644,8.799c-18.841,4.293-38.857,9.283-55.74,19.001c-4.43,2.554-9.753,6.316-10.542,11.757 c-0.765,5.26,6.598,8.244,10.487,9.154c17.334,4.067,33.112-11.493,43.282-23.328c22.536-26.236,38.463-60.079,49.561-92.598 c3.637-10.658,8.135-23.223,7.148-34.688c-0.852-9.946-10.076-9.329-17.072-5.241c-6.79,3.969,0.365,8.072,5.521,5.062 c1.247-0.731-1.068-0.571-0.499-0.004c0.696,0.699,0.964,3.669,0.971,5.307c0.049,7.806-2.32,15.712-4.535,23.109 c-6.877,23.003-17.124,45.324-29.044,66.123c-9.417,16.429-21.929,38.571-39.768,47.218c-4.65,2.255-10.546,2.478-14.428-1.458 c-0.742-0.75-0.483-1.354-0.156-1.84c0.777-1.137,3.118-2.654,5.276-3.895c16.667-9.601,37.564-13.731,56.143-17.697 c19.277-4.121,40.153-8.262,59.964-6.605c3.365,0.279,10.137,1.149,10.264,4.058c0.051,1.107-1.008,3.088-2.094,3.907 c-1.033,0.769,0.973,0.063-0.246-0.131c-1.336-0.21-2.664-1.263-3.7-2.055c-7.562-5.743-12.331-15.381-16.491-23.649 c-5.786-11.528-10.31-23.694-14.188-35.974c-3.703-11.741-6.741-23.801-8.271-36.029c-0.579-4.658-0.855-9.375-0.524-14.062 c0.109-1.524,0.344-3.029,0.775-4.497c0.276-0.941,1.587-2.523,0.553-1.823c6.483-4.386-0.492-8.46-5.521-5.059L144.226,51.069z" opacity=".2"/><radialGradient id="XMLID_11_" cx="146.019" cy="139.357" r="49.252" fx="146.019" fy="139.357" gradientUnits="userSpaceOnUse"><stop style="stop-color:#900" id="stop575" offset="0"/><stop style="stop-color:#f8310e" id="stop576" offset="1"/></radialGradient><path id="path580" fill="url(#XMLID_11_)" d="M142.494,49.335c-13.958,9.451-5.52,36.748-2.447,49.557 c5.613,23.423,14.018,48.226,27.928,68.118c4.088,5.84,9.305,12.211,16.766,13.402c7.246,1.167,14.421-4.047,17.535-10.276 c6.521-13.048-16.097-13.61-23.257-13.654c-21.3-0.135-42.961,4.086-63.644,8.8c-18.843,4.292-38.858,9.279-55.74,18.998 c-4.432,2.556-9.752,6.317-10.543,11.759c-0.764,5.258,6.598,8.241,10.487,9.152c17.333,4.067,33.111-11.49,43.282-23.326 c22.536-26.238,38.462-60.081,49.56-92.599c3.64-10.658,8.137-23.225,7.148-34.69c-0.852-9.946-10.076-9.328-17.072-5.24 c-6.787,3.969,0.365,8.073,5.524,5.061c1.247-0.729-1.069-0.571-0.502-0.003c0.696,0.7,0.966,3.67,0.971,5.306 c0.049,7.808-2.32,15.712-4.533,23.109c-6.876,23.003-17.124,45.325-29.043,66.125c-9.421,16.426-21.932,38.572-39.771,47.216 c-4.648,2.257-10.544,2.479-14.428-1.459c-0.738-0.749-0.478-1.354-0.155-1.839c0.776-1.138,3.117-2.655,5.277-3.894 c16.667-9.602,37.563-13.732,56.144-17.695c19.274-4.124,40.155-8.266,59.962-6.607c3.37,0.281,10.137,1.15,10.266,4.056 c0.052,1.111-1.01,3.091-2.096,3.909c-1.031,0.767,0.976,0.063-0.243-0.131c-1.336-0.21-2.667-1.265-3.703-2.053 c-7.562-5.747-12.328-15.383-16.486-23.653c-5.789-11.525-10.314-23.693-14.193-35.972c-3.701-11.742-6.741-23.802-8.269-36.03 c-0.582-4.656-0.858-9.374-0.527-14.06c0.112-1.526,0.347-3.03,0.775-4.5c0.276-0.941,1.589-2.521,0.556-1.823 c6.48-4.386-0.495-8.46-5.524-5.059L142.494,49.335z"/><linearGradient id="XMLID_12_" x1="75.059" x2="79.012" y1="175.886" y2="186.428" gradientUnits="userSpaceOnUse"><stop style="stop-color:#fff" id="stop582" offset="0"/><stop style="stop-color:#f8310e" id="stop583" offset="1"/></linearGradient><path id="path587" fill="url(#XMLID_12_)" d="M59.311,196.072c-1.119-1.136-1.103-2.306-0.993-2.908l0.607-1.413 c0.532-0.776,1.715-2.08,5.931-4.5c8.327-4.801,18.361-8.657,31.571-12.149l5.175-1.371c1.555-1.171,2.747-2.587,3.153-4.188 l-0.218,0.326l-0.743,0.184c-12.719,3.169-29.125,7.841-43.18,15.931c-3.689,2.126-8.688,5.483-9.526,10.049l-0.048,0.283 c-0.326,2.242,1.933,4.123,4.621,5.415c2.474-1.238,4.997-2.178,7.41-3.114C61.676,198.009,60.397,197.175,59.311,196.072z"/><linearGradient id="XMLID_13_" x1="190.086" x2="188.103" y1="156.243" y2="164.174" gradientUnits="userSpaceOnUse"><stop style="stop-color:#fff" id="stop589" offset="0"/><stop style="stop-color:#f8310e" id="stop590" offset="1"/></linearGradient><path id="path594" fill="url(#XMLID_13_)" d="M200.921,163.831c-1.209-1.964-5.655-5.275-21.911-5.381l-2.145,0.082l-1.317,0.058 c0.228,1.407,0.626,2.684,1.179,3.855l4.396,0.2c0,0,0.978,0.046,0.982,0.048c7.974,0.661,11.923,2.604,12.068,5.932 l-0.07,0.958c-0.216,1.189-0.912,2.536-1.768,3.573c1.441,0.412,2.911,0.777,4.385,1.107c1.592-1.497,2.904-3.236,3.793-5.008 C201.643,166.998,201.776,165.223,200.921,163.831z"/><linearGradient id="XMLID_14_" x1="-83.335" x2="-83.335" y1="43.826" y2="15.704" gradientTransform="matrix(0.9835 0.1809 -0.1809 0.9835 267.8761 169.5064)" gradientUnits="userSpaceOnUse"><stop style="stop-color:#cf0000" id="stop596" offset="0"/><stop style="stop-color:#f8310e" id="stop597" offset="1"/></linearGradient><path id="path601" fill="url(#XMLID_14_)" d="M192.336,173.156c-0.33,0.401-0.675,0.758-1.036,1.033l-1.017,0.771c0,0-0.46-0.285-0.905-0.571 c-1.689-0.325-3.173-1.448-4.268-2.284c-2.196-1.668-4.155-3.633-6.316-6.288l-1.873-2.304c-2.503,0.703-5.024,1.478-7.512,2.09 l0.181,0.276c4.142,5.919,8.881,11.534,15.462,12.592c4.326,0.692,8.545-1.28,11.669-4.208 C195.247,173.934,193.777,173.568,192.336,173.156z"/><linearGradient id="XMLID_15_" x1="133.07" x2="133.755" y1="161.585" y2="166.369" gradientUnits="userSpaceOnUse"><stop style="stop-color:#fff" id="stop603" offset="0"/><stop style="stop-color:#f8310e" id="stop604" offset="1"/></linearGradient><path id="path608" fill="url(#XMLID_15_)" d="M115.943,167.171l-4.932,1.123l0.506-0.738c-2.572,1.314-5.233,2.563-7.744,3.984 c-0.567,0.799-1.303,1.538-2.171,2.19l0.168-0.045c2.562-0.966,5.277-2.127,8.247-1.854l9.659-2.095l1.896-0.4 c14.375-3.075,29.666-6.139,44.652-6.851l0.18-0.012c-1.314-1.734-3.923-2.09-5.751-3.099 C144.783,160.906,129.177,164.156,115.943,167.171z"/><linearGradient id="XMLID_16_" x1="140.348" x2="140.348" y1="45.417" y2="56.588" gradientUnits="userSpaceOnUse"><stop style="stop-color:#fff" id="stop610" offset="0"/><stop style="stop-color:#f8310e" id="stop611" offset="1"/></linearGradient><path id="path615" fill="url(#XMLID_16_)" d="M176.033,162.417l0.693,0.028c-0.553-1.172-0.951-2.448-1.179-3.855l-1.786,0.083l-0.502-1.04 l-5.344-9.967c-5.18-10.31-9.857-22.17-14.304-36.264c-1.835-5.814-3.44-11.556-4.758-17.065l-0.138-0.576l0.871-2.415 l0.969-2.715l0.422-1.238c2.146-6.254,4.572-13.342,5.845-20.26c0.849-4.626,1.106-8.68,0.785-12.39 c-0.239-2.804-1.235-4.677-2.958-5.567c-2.568-1.335-6.949-0.605-11.163,1.858l-0.047,0.04c-0.685,0.41-1.155,0.809-1.493,1.269 l-0.089,0.126l-0.114,0.108c-2.29,2.281-3.816,5.412-4.533,9.308c-1.873,10.187,1.552,23.796,3.818,32.805l0.436,1.729 l-0.204,0.561c-6.318,17.615-14.61,35.427-24.64,52.931l-0.119,0.206c-3.384,5.901-7.217,12.589-11.544,19.113l-0.202,0.312 c-0.18,0.705-0.533,1.367-0.982,1.997c2.51-1.422,5.171-2.67,7.744-3.984l2.37-3.425c10.43-15.101,19.833-32.719,27.95-52.357 l2.153-5.222l1.559,5.434c4.974,17.385,10.873,31.878,18.026,44.305l1.532,2.666l-3.063,0.278 c-0.466,0.038-0.926,0.1-1.392,0.142c1.828,1.009,4.437,1.364,5.751,3.099l0.966-0.046l1.299,2.038l0.74,1.137 c2.487-0.612,5.009-1.387,7.512-2.09L176.033,162.417 M149.115,71.042l-0.249,1.031l-3.881-0.252 c-0.413-4.481-0.49-7.949-0.258-11.238v-0.001l0.349-2.799l0.502-2.112c0-0.003,2.764-5.985,2.764-5.985l1.472,4.95 c0.466,1.451,0.64,3.631,0.646,5.056c0.019,2.912-0.278,5.986-0.907,9.405L149.115,71.042z"/></g><rect id="_x3C_Slice_x3E_" width="256" height="256" fill="none"/></g></svg>